<?xml version="1.0" encoding="UTF-8" standalone="no"?>
<!DOCTYPE svg PUBLIC "-//W3C//DTD SVG 1.1//EN"
 "http://www.w3.org/Graphics/SVG/1.1/DTD/svg11.dtd">
<!-- Generated by graphviz version 2.47.3 (20210619.1520)
 -->
<!-- Title: dependencies Pages: 1 -->
<svg width="292pt" height="174pt"
 viewBox="0.00 0.00 292.00 173.80" xmlns="http://www.w3.org/2000/svg" xmlns:xlink="http://www.w3.org/1999/xlink">
<g id="graph0" class="graph" transform="scale(1 1) rotate(0) translate(4 169.8)">
<title>dependencies</title>
<polygon fill="white" stroke="transparent" points="-4,4 -4,-169.8 288,-169.8 288,4 -4,4"/>
<text text-anchor="middle" x="142" y="-8.2" font-family="sans-serif" font-size="14.00">dependencies</text>
<g id="clust1" class="cluster">
<title>cluster_UsersModule</title>
<polygon fill="none" stroke="black" stroke-dasharray="1,5" points="8,-32.8 8,-157.8 276,-157.8 276,-32.8 8,-32.8"/>
</g>
<g id="clust6" class="cluster">
<title>cluster_UsersModule_providers</title>
<polygon fill="none" stroke="black" points="128,-40.8 128,-92.8 268,-92.8 268,-40.8 128,-40.8"/>
</g>
<g id="clust3" class="cluster">
<title>cluster_UsersModule_imports</title>
<polygon fill="none" stroke="black" points="16,-40.8 16,-92.8 120,-92.8 120,-40.8 16,-40.8"/>
</g>
<!-- AuthModule -->
<g id="node1" class="node">
<title>AuthModule</title>
<polygon fill="#8dd3c7" stroke="black" points="111.55,-84.8 108.55,-88.8 87.55,-88.8 84.55,-84.8 24.45,-84.8 24.45,-48.8 111.55,-48.8 111.55,-84.8"/>
<text text-anchor="middle" x="68" y="-62.6" font-family="Times,serif" font-size="14.00">AuthModule</text>
</g>
<!-- UsersModule -->
<g id="node2" class="node">
<title>UsersModule</title>
<polygon fill="#8dd3c7" stroke="black" points="178.92,-149.8 175.92,-153.8 154.92,-153.8 151.92,-149.8 87.08,-149.8 87.08,-113.8 178.92,-113.8 178.92,-149.8"/>
<text text-anchor="middle" x="133" y="-127.6" font-family="Times,serif" font-size="14.00">UsersModule</text>
</g>
<!-- AuthModule&#45;&gt;UsersModule -->
<g id="edge1" class="edge">
<title>AuthModule&#45;&gt;UsersModule</title>
<path fill="none" stroke="black" d="M99.53,-84.91C99.53,-84.91 99.53,-103.79 99.53,-103.79"/>
<polygon fill="black" stroke="black" points="96.03,-103.79 99.53,-113.79 103.03,-103.79 96.03,-103.79"/>
</g>
<!-- UsersService -->
<g id="node3" class="node">
<title>UsersService</title>
<ellipse fill="#fdb462" stroke="black" cx="198" cy="-66.8" rx="61.95" ry="18"/>
<text text-anchor="middle" x="198" y="-62.6" font-family="Times,serif" font-size="14.00">UsersService</text>
</g>
<!-- UsersService&#45;&gt;UsersModule -->
<g id="edge2" class="edge">
<title>UsersService&#45;&gt;UsersModule</title>
<path fill="none" stroke="black" d="M157.37,-80.58C157.37,-80.58 157.37,-103.35 157.37,-103.35"/>
<polygon fill="black" stroke="black" points="153.87,-103.35 157.37,-113.35 160.87,-103.35 153.87,-103.35"/>
</g>
</g>
</svg>
