<?xml version="1.0" encoding="UTF-8" standalone="no"?>
<!DOCTYPE svg PUBLIC "-//W3C//DTD SVG 1.1//EN"
 "http://www.w3.org/Graphics/SVG/1.1/DTD/svg11.dtd">
<!-- Generated by graphviz version 2.47.3 (20210619.1520)
 -->
<!-- Title: dependencies Pages: 1 -->
<svg width="436pt" height="315pt"
 viewBox="0.00 0.00 436.00 314.80" xmlns="http://www.w3.org/2000/svg" xmlns:xlink="http://www.w3.org/1999/xlink">
<g id="graph0" class="graph" transform="scale(1 1) rotate(0) translate(4 310.8)">
<title>dependencies</title>
<polygon fill="white" stroke="transparent" points="-4,4 -4,-310.8 432,-310.8 432,4 -4,4"/>
<text text-anchor="middle" x="214" y="-8.2" font-family="sans-serif" font-size="14.00">dependencies</text>
<g id="clust1" class="cluster">
<title>cluster_AppModule</title>
<polygon fill="none" stroke="black" stroke-dasharray="1,5" points="172,-108.8 172,-298.8 308,-298.8 308,-108.8 172,-108.8"/>
</g>
<g id="clust3" class="cluster">
<title>cluster_AppModule_imports</title>
<polygon fill="none" stroke="black" points="180,-116.8 180,-233.8 288,-233.8 288,-116.8 180,-116.8"/>
</g>
<g id="clust7" class="cluster">
<title>cluster_AuthModule</title>
<polygon fill="none" stroke="black" stroke-dasharray="1,5" points="28,-32.8 28,-100.8 420,-100.8 420,-32.8 28,-32.8"/>
</g>
<g id="clust10" class="cluster">
<title>cluster_AuthModule_exports</title>
<polygon fill="none" stroke="black" points="310,-40.8 310,-92.8 412,-92.8 412,-40.8 310,-40.8"/>
</g>
<g id="clust12" class="cluster">
<title>cluster_AuthModule_providers</title>
<polygon fill="none" stroke="black" points="36,-40.8 36,-92.8 302,-92.8 302,-40.8 36,-40.8"/>
</g>
<g id="clust13" class="cluster">
<title>cluster_UsersModule</title>
<polygon fill="none" stroke="black" stroke-dasharray="1,5" points="8,-108.8 8,-176.8 164,-176.8 164,-108.8 8,-108.8"/>
</g>
<g id="clust18" class="cluster">
<title>cluster_UsersModule_providers</title>
<polygon fill="none" stroke="black" points="16,-116.8 16,-168.8 156,-168.8 156,-116.8 16,-116.8"/>
</g>
<!-- AuthModule -->
<g id="node1" class="node">
<title>AuthModule</title>
<polygon fill="#8dd3c7" stroke="black" points="278.55,-160.8 275.55,-164.8 254.55,-164.8 251.55,-160.8 191.45,-160.8 191.45,-124.8 278.55,-124.8 278.55,-160.8"/>
<text text-anchor="middle" x="235" y="-138.6" font-family="Times,serif" font-size="14.00">AuthModule</text>
</g>
<!-- UsersModule -->
<g id="node2" class="node">
<title>UsersModule</title>
<polygon fill="#8dd3c7" stroke="black" points="279.92,-225.8 276.92,-229.8 255.92,-229.8 252.92,-225.8 188.08,-225.8 188.08,-189.8 279.92,-189.8 279.92,-225.8"/>
<text text-anchor="middle" x="234" y="-203.6" font-family="Times,serif" font-size="14.00">UsersModule</text>
</g>
<!-- AuthModule&#45;&gt;UsersModule -->
<g id="edge6" class="edge">
<title>AuthModule&#45;&gt;UsersModule</title>
<path fill="none" stroke="black" d="M235,-160.91C235,-160.91 235,-179.79 235,-179.79"/>
<polygon fill="black" stroke="black" points="231.5,-179.79 235,-189.79 238.5,-179.79 231.5,-179.79"/>
</g>
<!-- AppModule -->
<g id="node3" class="node">
<title>AppModule</title>
<polygon fill="#8dd3c7" stroke="black" points="287.66,-290.8 284.66,-294.8 263.66,-294.8 260.66,-290.8 204.34,-290.8 204.34,-254.8 287.66,-254.8 287.66,-290.8"/>
<text text-anchor="middle" x="246" y="-268.6" font-family="Times,serif" font-size="14.00">AppModule</text>
</g>
<!-- AuthModule&#45;&gt;AppModule -->
<g id="edge1" class="edge">
<title>AuthModule&#45;&gt;AppModule</title>
<path fill="none" stroke="black" d="M278.55,-148.8C281.76,-148.8 283.77,-148.8 283.77,-148.8 283.77,-148.8 283.77,-244.77 283.77,-244.77"/>
<polygon fill="black" stroke="black" points="280.27,-244.77 283.77,-254.77 287.27,-244.77 280.27,-244.77"/>
</g>
<!-- JwtStrategy  -->
<g id="node4" class="node">
<title>JwtStrategy </title>
<polygon fill="#fb8072" stroke="black" points="403.6,-84.8 318.4,-84.8 318.4,-48.8 403.6,-48.8 403.6,-84.8"/>
<text text-anchor="middle" x="361" y="-62.6" font-family="Times,serif" font-size="14.00">JwtStrategy </text>
</g>
<!-- AuthModule&#45;&gt;JwtStrategy  -->
<g id="edge3" class="edge">
<title>AuthModule&#45;&gt;JwtStrategy </title>
<path fill="none" stroke="black" stroke-dasharray="5,2" d="M278.72,-136.8C315.11,-136.8 361,-136.8 361,-136.8 361,-136.8 361,-94.83 361,-94.83"/>
<polygon fill="black" stroke="black" points="364.5,-94.83 361,-84.83 357.5,-94.83 364.5,-94.83"/>
</g>
<!-- UsersModule&#45;&gt;AppModule -->
<g id="edge2" class="edge">
<title>UsersModule&#45;&gt;AppModule</title>
<path fill="none" stroke="black" d="M241.94,-225.91C241.94,-225.91 241.94,-244.79 241.94,-244.79"/>
<polygon fill="black" stroke="black" points="238.44,-244.79 241.94,-254.79 245.44,-244.79 238.44,-244.79"/>
</g>
<!-- AuthService -->
<g id="node5" class="node">
<title>AuthService</title>
<ellipse fill="#fdb462" stroke="black" cx="235" cy="-66.8" rx="59.11" ry="18"/>
<text text-anchor="middle" x="235" y="-62.6" font-family="Times,serif" font-size="14.00">AuthService</text>
</g>
<!-- AuthService&#45;&gt;AuthModule -->
<g id="edge4" class="edge">
<title>AuthService&#45;&gt;AuthModule</title>
<path fill="none" stroke="black" d="M235,-84.81C235,-84.81 235,-114.65 235,-114.65"/>
<polygon fill="black" stroke="black" points="231.5,-114.65 235,-124.65 238.5,-114.65 231.5,-114.65"/>
</g>
<!-- JwtStrategy -->
<g id="node6" class="node">
<title>JwtStrategy</title>
<ellipse fill="#fdb462" stroke="black" cx="101" cy="-66.8" rx="56.76" ry="18"/>
<text text-anchor="middle" x="101" y="-62.6" font-family="Times,serif" font-size="14.00">JwtStrategy</text>
</g>
<!-- JwtStrategy&#45;&gt;AuthModule -->
<g id="edge5" class="edge">
<title>JwtStrategy&#45;&gt;AuthModule</title>
<path fill="none" stroke="black" d="M152.8,-74.09C152.8,-93.11 152.8,-142.8 152.8,-142.8 152.8,-142.8 181.01,-142.8 181.01,-142.8"/>
<polygon fill="black" stroke="black" points="181.01,-146.3 191.01,-142.8 181.01,-139.3 181.01,-146.3"/>
</g>
<!-- UsersService -->
<g id="node7" class="node">
<title>UsersService</title>
<ellipse fill="#fdb462" stroke="black" cx="86" cy="-142.8" rx="61.95" ry="18"/>
<text text-anchor="middle" x="86" y="-138.6" font-family="Times,serif" font-size="14.00">UsersService</text>
</g>
<!-- UsersService&#45;&gt;UsersModule -->
<g id="edge7" class="edge">
<title>UsersService&#45;&gt;UsersModule</title>
<path fill="none" stroke="black" d="M86,-160.91C86,-180.14 86,-207.8 86,-207.8 86,-207.8 177.98,-207.8 177.98,-207.8"/>
<polygon fill="black" stroke="black" points="177.98,-211.3 187.98,-207.8 177.98,-204.3 177.98,-211.3"/>
</g>
</g>
</svg>
